# File produced by Open Asset Import Library (http://www.assimp.sf.net)
# (assimp v3.2.202087883)

mtllib model_normalized.mtl

# 12 vertex positions
v -0.230022 0.356534 -0.069007
v -0.230022 -0.356534 -0.230022
v -0.230022 -0.356534 -0.069007
v -0.230022 0.356534 -0.230022
v -0.109260 0.356534 0.299028
v -0.109260 -0.356534 0.299028
v 0.230022 -0.356534 -0.069007
v 0.230022 0.356534 -0.230022
v 0.230022 -0.356534 -0.230022
v 0.109260 -0.356534 0.299028
v 0.230022 0.356534 -0.069007
v 0.109260 0.356534 0.299028

# 24 UV coordinates
vt 0.298741 1 0
vt 0 0 0
vt 0.298741 0 0
vt 0 1 0
vt -0.718657 0 0
vt -0.718657 1 0
vt -0.304348 0.720763 0
vt -0.304348 0 0
vt 0.304348 -0.720763 0
vt 0 -0.720763 0
vt 0 0.720763 0
vt -1 0.531562 0
vt 0.304348 0 0
vt 1 -0.531562 0
vt -1 0.1892 0
vt 1 -0.1892 0
vt 0.999463 0 0
vt 0.999463 1 0
vt -0.298741 0 0
vt 0.718657 1 0
vt 0.718657 0 0
vt -0.298741 1 0
vt 0.999384 0 0
vt 0.999384 1 0

# 10 vertex normals
vn -0.0254 0 0
vn -0.024134 0 0.00791896
vn 0.0254 0 0
vn 0 0.0254 0
vn 0.024134 0 -0.00791896
vn -0 -0.0254 -0
vn 0 0 0.0254
vn -0.024134 -0 -0.00791896
vn -0 -0 -0.0254
vn 0.024134 0 0.00791896

# Mesh 'mesh1_mesh1-geometry' with 4 faces
g mesh1_mesh1-geometry
usemtl material_0_1_8
f  1/1/1 2/2/1 3/3/1
f  2/2/1 1/1/1 4/4/1
f  3/5/2 5/4/2 1/6/2
f  5/4/2 3/5/2 6/2/2

# Mesh 'mesh1_mesh1-geometry' with 20 faces
g mesh1_mesh1-geometry
usemtl material_1_24
f  3/2/3 2/2/3 1/2/3
f  4/2/3 1/2/3 2/2/3
f  3/2/4 7/2/4 2/2/4
f  1/2/5 5/2/5 3/2/5
f  4/2/6 8/2/6 1/2/6
f  4/2/7 2/2/7 8/2/7
f  9/2/4 2/2/4 7/2/4
f  10/2/4 7/2/4 3/2/4
f  6/2/5 3/2/5 5/2/5
f  5/2/6 1/2/6 11/2/6
f  11/2/6 1/2/6 8/2/6
f  9/2/7 8/2/7 2/2/7
f  9/2/1 7/2/1 8/2/1
f  7/2/8 10/2/8 11/2/8
f  6/2/4 10/2/4 3/2/4
f  6/2/9 5/2/9 10/2/9
f  12/2/6 5/2/6 11/2/6
f  11/2/1 8/2/1 7/2/1
f  12/2/8 11/2/8 10/2/8
f  12/2/9 10/2/9 5/2/9

# Mesh 'mesh1_mesh1-geometry' with 8 faces
g mesh1_mesh1-geometry
usemtl material_3_3_8
f  2/2/6 7/7/6 3/8/6
f  1/9/4 8/2/4 4/10/4
f  7/7/6 2/2/6 9/11/6
f  3/8/6 7/7/6 10/12/6
f  11/13/4 1/9/4 5/14/4
f  8/2/4 1/9/4 11/13/4
f  3/8/6 10/12/6 6/15/6
f  11/13/4 5/14/4 12/16/4

# Mesh 'mesh1_mesh1-geometry' with 2 faces
g mesh1_mesh1-geometry
usemtl material_4_4_8
f  8/4/9 2/17/9 4/18/9
f  2/17/9 8/4/9 9/2/9

# Mesh 'mesh1_mesh1-geometry' with 4 faces
g mesh1_mesh1-geometry
usemtl material_2_2_8
f  8/4/3 7/19/3 9/2/3
f  11/20/10 10/2/10 7/21/10
f  7/19/3 8/4/3 11/22/3
f  10/2/10 11/20/10 12/4/10

# Mesh 'mesh1_mesh1-geometry' with 2 faces
g mesh1_mesh1-geometry
usemtl material_5_5_8
f  10/23/7 5/4/7 6/2/7
f  5/4/7 10/23/7 12/24/7

